<!DOCTYPE svg PUBLIC "-//W3C//DTD SVG 20010904//EN" "http://www.w3.org/TR/2001/REC-SVG-20010904/DTD/svg10.dtd">
<svg version="1.0" xmlns="http://www.w3.org/2000/svg" width="200px" height="200px" viewBox="0 0 2000 2000" preserveAspectRatio="xMidYMid meet">
<g id="layer101" fill="#131415" stroke="none">
 <path d="M0 1000 l0 -1000 1000 0 1000 0 0 1000 0 1000 -1000 0 -1000 0 0 -1000z"/>
 </g>
<g id="layer102" fill="#fefefe" stroke="none">
 <path d="M410 996 l0 -306 110 0 c126 0 171 15 212 72 22 32 23 39 23 235 0 188 -1 203 -21 229 -46 62 -65 69 -200 72 l-124 4 0 -306z m222 177 c16 -14 18 -34 18 -179 0 -157 -1 -163 -22 -178 -12 -9 -42 -16 -65 -16 l-43 0 0 195 0 195 47 0 c29 0 53 -6 65 -17z"/>
 <path d="M850 1280 c-19 -19 -20 -33 -20 -283 0 -330 -14 -307 179 -307 l132 0 -3 53 -3 52 -97 3 -98 3 0 69 0 70 60 0 60 0 0 55 0 55 -60 0 -60 0 0 70 0 69 98 3 97 3 3 53 3 52 -135 0 c-123 0 -138 -2 -156 -20z"/>
 <path d="M1387 1289 c-29 -17 -43 -55 -112 -319 -37 -140 -70 -260 -72 -267 -4 -10 11 -13 55 -13 71 0 58 -24 122 225 22 88 43 167 46 175 4 10 110 -361 114 -397 0 -2 27 -3 61 -3 53 0 60 2 55 18 -2 9 -35 129 -71 266 -67 252 -75 277 -103 309 -17 19 -67 22 -95 6z"/>
 </g>

</svg>